<?xml version="1.0" encoding="UTF-8"?>
<svg version="1.1" xmlns="http://www.w3.org/2000/svg" width="288" height="358">
<path d="M0 0 C22.44 0 44.88 0 68 0 C69.32 5.61 70.64 11.22 72 17 C78.47718158 32.16249324 88.92101659 44.97561655 104.22265625 51.9375 C121.72857071 58.6345587 138.74474104 58.90677607 156.1015625 51.71484375 C163.01579584 48.21877365 168.53656413 43.44413044 174 38 C174.84691406 37.18789062 174.84691406 37.18789062 175.7109375 36.359375 C184.97811649 26.65090178 188.8560158 12.86390517 191 0 C213.44 0 235.88 0 259 0 C259.12032643 18.48570457 259.12032643 18.48570457 259.14648438 26.4296875 C259.1643445 31.82789067 259.18536042 37.22593965 259.22631836 42.62402344 C259.25916789 46.98124622 259.27690637 51.3383034 259.28463173 55.69564056 C259.2901297 57.34923658 259.30086442 59.00282462 259.31719017 60.65634918 C259.49945697 79.90081912 255.53205245 96.31356717 241.671875 110.59375 C224.75668856 125.82730971 207.73867871 126 185 126 C184.67 106.53 184.34 87.06 184 67 C147.7 67 111.4 67 74 67 C74 86.47 74 105.94 74 126 C49.75636435 126 34.1654868 125.50020402 16.8125 109.4375 C2.46068252 94.3099086 -0.6658138 76.30699204 -0.390625 56.25 C-0.38313857 54.61377667 -0.37745706 52.9775442 -0.37347412 51.34130859 C-0.3584062 47.09320071 -0.31929449 42.84566462 -0.2746582 38.59777832 C-0.22598263 33.46973482 -0.20808142 28.3414971 -0.18484497 23.21328735 C-0.14642577 15.47513066 -0.06964399 7.73822148 0 0 Z " fill="#37AD46" transform="translate(14,144)"/>
<path d="M0 0 C0 19.8 0 39.6 0 60 C36.63 60 73.26 60 111 60 C110.96038829 40.62803794 110.96038829 40.62803794 110.90991211 21.25610352 C110.90699321 18.83870487 110.90444459 16.42130574 110.90234375 14.00390625 C110.89722778 12.7351062 110.89211182 11.46630615 110.88684082 10.15905762 C110.88665955 8.3624469 110.88665955 8.3624469 110.88647461 6.52954102 C110.884254 5.48363297 110.88203339 4.43772491 110.87974548 3.36012268 C111 1 111 1 112 0 C132.88980317 -1.85039191 151.24787275 1.9033495 167.6484375 15.6328125 C180.52442858 28.59435834 185.26815974 42.99345897 185.22659302 60.91200256 C185.21638321 62.58847179 185.20595127 64.26493969 185.1953125 65.94140625 C185.19157676 67.67732072 185.18873244 69.41323732 185.18673706 71.14915466 C185.17914474 75.6914362 185.15953463 80.2335874 185.1373291 84.77581787 C185.11315388 90.24001625 185.10406871 95.70425849 185.09242249 101.16849518 C185.07310722 109.44575377 185.03475412 117.72272704 185 126 C162.56 126 140.12 126 117 126 C115.02 117.585 115.02 117.585 113 109 C105.78148353 91.76395046 95.21899794 81.00301497 78.1875 73.1875 C61.91555472 66.81747491 44.86117771 68.3183063 29 75 C25.07996866 77.04336992 21.53823287 79.35676701 18 82 C17.36964844 82.43699219 16.73929687 82.87398438 16.08984375 83.32421875 C2.69697628 93.48327312 -2.41907156 110.48264343 -6 126 C-28.44 126 -50.88 126 -74 126 C-74.12032643 108.34321082 -74.12032643 108.34321082 -74.14648438 100.734375 C-74.1643196 95.5711933 -74.18526639 90.40817332 -74.22631836 85.24511719 C-74.25925526 81.07591624 -74.2769242 76.90688906 -74.28463173 72.7375679 C-74.29011438 71.15819188 -74.30081769 69.57882383 -74.31719017 67.99952316 C-74.50808773 48.7968099 -71.03910147 31.53772663 -57.47070312 17.13427734 C-40.78792477 0.54718294 -22.85249588 0 0 0 Z " fill="#37AD46" transform="translate(88,11)"/>
<path d="M0 0 C0.88315384 0.00202423 1.76630768 0.00404846 2.67622375 0.00613403 C3.60135269 0.00438171 4.52648163 0.00262939 5.47964478 0.00082397 C8.55365343 -0.00359611 11.62760508 -0.000656 14.70161438 0.00271606 C16.82771313 0.00204307 18.9538118 0.00107308 21.07991028 -0.00018311 C25.54219798 -0.00166029 30.00446571 0.00049514 34.4667511 0.00515747 C40.20057007 0.01085477 45.93434223 0.00757587 51.66815948 0.00158501 C56.06032161 -0.00202005 60.45247255 -0.00088228 64.84463501 0.0017128 C66.95945237 0.00238222 69.07427072 0.00155312 71.18908691 -0.00076675 C74.13925384 -0.00329237 77.08934384 0.00054603 80.039505 0.00613403 C80.92265884 0.0041098 81.80581268 0.00208557 82.71572876 0 C88.74360204 0.02126622 88.74360204 0.02126622 89.85786438 1.13552856 C89.95126872 2.76227634 89.97531609 4.39306908 89.97138977 6.02249146 C89.97127647 7.58399681 89.97127647 7.58399681 89.97116089 9.17704773 C89.9659996 10.30932297 89.96083832 11.44159821 89.95552063 12.60818481 C89.95410568 13.7609642 89.95269073 14.91374359 89.95123291 16.10145569 C89.94561443 19.8003392 89.9330588 23.4991632 89.92036438 27.19802856 C89.91535176 29.69867873 89.91078844 32.19932985 89.9066925 34.69998169 C89.895639 40.84518445 89.8788829 46.99035226 89.85786438 53.13552856 C85.07499115 54.08328943 80.43468519 54.27798387 75.57685852 54.2649231 C74.36346046 54.26755157 74.36346046 54.26755157 73.12554932 54.27023315 C70.46468427 54.27461648 67.80388629 54.27172581 65.14302063 54.26834106 C63.28506457 54.26901518 61.42710859 54.26998611 59.56915283 54.27124023 C55.67978575 54.2727125 51.79044167 54.27057804 47.90107727 54.26589966 C42.92690985 54.26020665 37.95279645 54.26348167 32.97863102 54.26947212 C29.14297075 54.27309384 25.30732318 54.27193167 21.47166252 54.26934433 C19.63812186 54.26867931 17.80458002 54.26948856 15.97104073 54.27182388 C13.40341789 54.27437643 10.83588123 54.27047308 8.26826477 54.2649231 C7.51739594 54.26694733 6.7665271 54.26897156 5.99290466 54.27105713 C1.50308326 54.2531685 -2.7264806 53.86581163 -7.14213562 53.13552856 C-7.16740254 45.74824755 -7.18496722 38.36097759 -7.19706726 30.97366333 C-7.20210925 28.45835962 -7.20894265 25.94305885 -7.21757507 23.42776489 C-7.22964656 19.82123082 -7.23536511 16.21473534 -7.23979187 12.60818481 C-7.24495316 11.47590958 -7.25011444 10.34363434 -7.25543213 9.17704773 C-7.25550766 8.13604416 -7.25558319 7.09504059 -7.25566101 6.02249146 C-7.25788162 5.10093765 -7.26010223 4.17938385 -7.26239014 3.22990417 C-7.00527486 -1.24806457 -3.72962722 0.01315806 0 0 Z " fill="#36AF45" transform="translate(102.14213562011719,216.86447143554688)"/>
<path d="M0 0 C32.01 0 64.02 0 97 0 C97 17.49 97 34.98 97 53 C64.99 53 32.98 53 0 53 C0 35.51 0 18.02 0 0 Z " fill="#37AD46" transform="translate(95,11)"/>
<path d="M0 0 C3.58971738 1.76336994 5.59706576 3.86407521 8 7 C8.67506592 7.54994629 9.35013184 8.09989258 10.0456543 8.66650391 C13.75792881 13.09897359 12.82344192 19.29626946 12.85107422 24.8515625 C12.87474622 27.1008854 12.97289214 29.33895815 13.07421875 31.5859375 C13.20460266 37.44181908 13.20411795 42.20756134 9.81738281 47.24902344 C6.45227682 50.68757663 3.60281301 53.465729 -1 55 C-2.55643549 55.01553817 -4.11400687 54.96798687 -5.66796875 54.87890625 C-7.00698242 54.80639648 -7.00698242 54.80639648 -8.37304688 54.73242188 C-9.30181641 54.67634766 -10.23058594 54.62027344 -11.1875 54.5625 C-12.12787109 54.51029297 -13.06824219 54.45808594 -14.03710938 54.40429688 C-16.35836634 54.27468354 -18.6792274 54.13801484 -21 54 C-21 50.37 -21 46.74 -21 43 C-18 42 -18 42 -7 42 C-7.33 32.1 -7.66 22.2 -8 12 C-12.29 12 -16.58 12 -21 12 C-21 8.37 -21 4.74 -21 1 C-15.31658138 -1.84170931 -6.14863861 -0.9251012 0 0 Z " fill="#010101" transform="translate(60,290)"/>
<path d="M0 0 C1.47668858 0.0133035 2.95331108 0.03716415 4.4296875 0.0703125 C5.18378906 0.07933594 5.93789062 0.08835937 6.71484375 0.09765625 C8.57826004 0.1212438 10.44151343 0.15711531 12.3046875 0.1953125 C15.76343896 6.85971563 18.78876737 13.58315559 21.51171875 20.578125 C21.88197678 21.51840546 22.2522348 22.45868591 22.63371277 23.42745972 C23.79918497 26.39007097 24.95829193 29.35512335 26.1171875 32.3203125 C26.91298926 34.34652004 27.70920951 36.37256326 28.50585938 38.3984375 C30.44363739 43.32884264 32.37621557 48.26126048 34.3046875 53.1953125 C32.3046875 55.1953125 32.3046875 55.1953125 28.6796875 55.42578125 C27.2212893 55.42178928 25.76289007 55.4070309 24.3046875 55.3828125 C23.56734375 55.38216797 22.83 55.38152344 22.0703125 55.38085938 C16.58570559 55.33582154 16.58570559 55.33582154 14.3046875 54.1953125 C13.58309326 52.55168116 12.91117329 50.88480864 12.3046875 49.1953125 C11.24507812 49.20691406 10.18546875 49.21851563 9.09375 49.23046875 C7.70573092 49.23984726 6.31770995 49.24894739 4.9296875 49.2578125 C4.23101562 49.26619141 3.53234375 49.27457031 2.8125 49.28320312 C-2.46875 49.30859375 -2.46875 49.30859375 -4.6953125 48.1953125 C-3.7053125 44.5653125 -2.7153125 40.9353125 -1.6953125 37.1953125 C1.2746875 36.5353125 4.2446875 35.8753125 7.3046875 35.1953125 C3.0146875 24.3053125 -1.2753125 13.4153125 -5.6953125 2.1953125 C-3.6953125 0.1953125 -3.6953125 0.1953125 0 0 Z " fill="#010101" transform="translate(110.6953125,289.8046875)"/>
<path d="M0 0 C2.6058889 -0.13494246 5.20482111 -0.23402299 7.8125 -0.3125 C8.55048828 -0.35439453 9.28847656 -0.39628906 10.04882812 -0.43945312 C12.20703125 -0.48828125 12.20703125 -0.48828125 16 0 C18.51901032 3.43832571 20.05444776 7.27256956 21.671875 11.19921875 C22.41691284 13.00156982 22.41691284 13.00156982 23.17700195 14.84033203 C23.70173856 16.12255613 24.226064 17.40494855 24.75 18.6875 C25.28667051 19.9959441 25.82337314 21.30437503 26.36010742 22.61279297 C27.42192304 25.20540334 28.4799419 27.79951717 29.53466797 30.39501953 C30.43954381 32.62117693 31.34690444 34.84632838 32.25830078 37.06982422 C33.28704525 39.58408468 34.3029463 42.10298529 35.3125 44.625 C35.60801758 45.34518311 35.90353516 46.06536621 36.20800781 46.80737305 C38.11578849 51.65263454 38.11578849 51.65263454 37 55 C34.22754986 55.13487595 31.46162912 55.23400807 28.6875 55.3125 C27.90181641 55.35439453 27.11613281 55.39628906 26.30664062 55.43945312 C24.09972567 55.48640876 22.15716021 55.47422058 20 55 C17.93110602 52.57508219 17 51.19969005 17 48 C15.86820313 48.09539062 14.73640625 48.19078125 13.5703125 48.2890625 C12.08858388 48.40159885 10.60681055 48.51354758 9.125 48.625 C8.37863281 48.68945312 7.63226563 48.75390625 6.86328125 48.8203125 C4.9129953 48.96087365 2.95530533 48.98759849 1 49 C0.34 48.34 -0.32 47.68 -1 47 C-0.35731563 45.35293447 0.28923802 43.70737825 0.9375 42.0625 C1.29714844 41.14597656 1.65679687 40.22945313 2.02734375 39.28515625 C3 37 3 37 4 36 C6.67058851 35.85884839 9.32432238 35.95752893 12 36 C11.67725098 35.20827393 11.35450195 34.41654785 11.02197266 33.60083008 C9.81790422 30.64694409 8.61398171 27.69299869 7.41015625 24.73901367 C6.89035746 23.46359941 6.37050151 22.18820845 5.85058594 20.9128418 C5.10075886 19.07346715 4.3511584 17.23400012 3.6015625 15.39453125 C3.15119629 14.28956299 2.70083008 13.18459473 2.23681641 12.04614258 C1.82866699 11.04091553 1.42051758 10.03568848 1 9 C0.4129126 7.63621216 0.4129126 7.63621216 -0.18603516 6.24487305 C-1.11365324 3.68655022 -0.93125679 2.51439334 0 0 Z " fill="#010101" transform="translate(225,290)"/>
<path d="M0 0 C6.73625876 1.36039688 10.05455858 5.33367557 14.01318359 10.65527344 C15.94488898 13.58884154 17.12629599 15.54843422 17.12109375 19.1015625 C15.94746238 21.84924065 14.54976467 24.12567921 12.8125 26.55859375 C12.21824219 27.40679687 11.62398437 28.255 11.01171875 29.12890625 C8.28999677 32.45357699 6.49782387 34.17630414 2.20703125 34.98046875 C-1.15446187 35.18930703 -4.50823133 35.34249295 -7.875 35.43359375 C-9.14730469 35.52447266 -9.14730469 35.52447266 -10.4453125 35.6171875 C-14.38367722 35.62404876 -16.19978178 35.07795841 -19.09765625 32.3125 C-21.18636124 29.76132312 -23.07100917 27.19263855 -24.875 24.43359375 C-25.48601562 23.6034375 -26.09703125 22.77328125 -26.7265625 21.91796875 C-27.875 19.43359375 -27.875 19.43359375 -27.30078125 17.046875 C-26.83027344 16.18449219 -26.35976562 15.32210937 -25.875 14.43359375 C-25.33230469 13.33402344 -24.78960937 12.23445312 -24.23046875 11.1015625 C-18.39967091 1.1721636 -11.35341195 -1.12955123 0 0 Z " fill="#37AD46" transform="translate(148.875,159.56640625)"/>
<path d="M0 0 C2.203125 2.21484375 2.203125 2.21484375 4.25 4.9375 C4.93578125 5.83339844 5.6215625 6.72929687 6.328125 7.65234375 C9.40854194 11.97788249 9.09319374 14.64293705 8.5859375 19.83203125 C7.45742414 25.93352682 4.76073381 31.47853238 2 37 C-0.73046875 38.0703125 -0.73046875 38.0703125 -4.1875 39.125 C-5.31542969 39.47820312 -6.44335938 39.83140625 -7.60546875 40.1953125 C-13.67708764 41.63461456 -13.67708764 41.63461456 -17 41 C-19.39998822 38.91503681 -21.12881553 36.47483178 -22.9375 33.875 C-23.44345703 33.20984375 -23.94941406 32.5446875 -24.47070312 31.859375 C-26.72028622 28.72898651 -28.0153721 26.91168407 -27.94921875 22.98828125 C-27.63597656 22.00214844 -27.32273438 21.01601562 -27 20 C-26.68804687 18.75863281 -26.37609375 17.51726562 -26.0546875 16.23828125 C-25.66650943 14.92818027 -25.27320311 13.61958877 -24.875 12.3125 C-24.61203125 11.31766602 -24.61203125 11.31766602 -24.34375 10.30273438 C-23.13365165 6.40134586 -22.26205334 5.14412933 -18.640625 3.15234375 C-17.43921875 2.77207031 -16.2378125 2.39179688 -15 2 C-14.11054688 1.67515625 -13.22109375 1.3503125 -12.3046875 1.015625 C-11.10199219 0.63664063 -11.10199219 0.63664063 -9.875 0.25 C-9.06804687 -0.01296875 -8.26109375 -0.2759375 -7.4296875 -0.546875 C-4.4943834 -1.09429506 -2.8179852 -1.01536927 0 0 Z " fill="#37AE46" transform="translate(188,132)"/>
<path d="M0 0 C5.11104017 0.4008659 9.91868409 1.36178176 14.875 2.6875 C16.54175781 3.12642578 16.54175781 3.12642578 18.2421875 3.57421875 C21 5 21 5 22.1875 7.6953125 C22.455625 8.78585938 22.72375 9.87640625 23 11 C23.77730469 12.72283203 23.77730469 12.72283203 24.5703125 14.48046875 C26.25197962 18.35437394 27.42153524 21.78791955 28 26 C26.16750603 30.51870176 23.37888631 33.5470403 20 37 C18.99646484 38.38638672 18.99646484 38.38638672 17.97265625 39.80078125 C16 42 16 42 13.9921875 42.41015625 C-0.33259994 40.05793101 -0.33259994 40.05793101 -4.4140625 35.37890625 C-5.55697764 33.28065365 -6.29838951 31.28577313 -7 29 C-7.46019531 27.50919922 -7.46019531 27.50919922 -7.9296875 25.98828125 C-10.54948925 16.56395016 -10.54948925 16.56395016 -9 12 C-7.53440099 9.79190471 -6.07678821 7.75355543 -4.4375 5.6875 C-4.01275391 5.13771484 -3.58800781 4.58792969 -3.15039062 4.02148438 C-2.10818741 2.6748173 -1.05516157 1.33653799 0 0 Z " fill="#37AD46" transform="translate(100,131)"/>
<path d="M0 0 C0.70253906 0.49113281 1.40507812 0.98226562 2.12890625 1.48828125 C2.82886719 1.96652344 3.52882812 2.44476563 4.25 2.9375 C5.45849609 3.85982422 5.45849609 3.85982422 6.69140625 4.80078125 C7.59669067 5.38520996 7.59669067 5.38520996 8.52026367 5.98144531 C11.44798686 8.07283497 13.39842287 9.5671334 14.2512207 13.15795898 C14.37981325 15.86296786 14.30428724 18.47375771 14.12890625 21.17578125 C14.09732422 22.10261719 14.06574219 23.02945313 14.03320312 23.984375 C13.95109931 26.25982362 13.836404 28.52861871 13.69140625 30.80078125 C10.78059897 31.83888569 7.86202967 32.85315766 4.94140625 33.86328125 C4.11640625 34.15783203 3.29140625 34.45238281 2.44140625 34.75585938 C1.24257812 35.16674805 1.24257812 35.16674805 0.01953125 35.5859375 C-0.71362305 35.8425415 -1.44677734 36.09914551 -2.20214844 36.36352539 C-6.12894385 37.17864947 -8.14808468 35.90382411 -11.47265625 33.76953125 C-12.63057757 32.95264155 -13.78412744 32.12952593 -14.93359375 31.30078125 C-18.98447819 28.33012557 -18.98447819 28.33012557 -23.30859375 25.80078125 C-23.33753922 22.34246539 -23.35537375 18.88418053 -23.37109375 15.42578125 C-23.37947266 14.4409375 -23.38785156 13.45609375 -23.39648438 12.44140625 C-23.39970703 11.50039062 -23.40292969 10.559375 -23.40625 9.58984375 C-23.41148682 8.72053223 -23.41672363 7.8512207 -23.42211914 6.95556641 C-23.30859375 4.80078125 -23.30859375 4.80078125 -22.30859375 2.80078125 C-20.11694621 1.81671699 -17.8781294 0.93637994 -15.62109375 0.11328125 C-14.40035156 -0.34433594 -13.17960938 -0.80195312 -11.921875 -1.2734375 C-7.26569752 -2.46642568 -4.2604078 -2.21310524 0 0 Z " fill="#38AD47" transform="translate(170.30859375,93.19921875)"/>
<path d="M0 0 C1.59356623 0.6933291 3.18345369 1.39517548 4.76953125 2.10546875 C5.56593018 2.4614917 6.3623291 2.81751465 7.18286133 3.18432617 C7.78251709 3.45349854 8.38217285 3.7226709 9 4 C11.07171439 22.84647165 11.07171439 22.84647165 7.75634766 27.89306641 C4.32174046 31.15578408 0.27052838 33.04587647 -4 35 C-4.66 35.66 -5.32 36.32 -6 37 C-13.06223619 36.640669 -20.63259006 33.95836106 -27 31 C-29.58096918 25.83806164 -28.86035522 17.6507105 -28 12 C-26.36138861 8.50392159 -24.23994499 7.0017842 -21 5 C-19.60394531 3.99646484 -19.60394531 3.99646484 -18.1796875 2.97265625 C-11.42649806 -1.52659145 -7.52071667 -3.07824313 0 0 Z " fill="#38AD46" transform="translate(131,93)"/>
<path d="M0 0 C5.94 0.33 11.88 0.66 18 1 C18 18.49 18 35.98 18 54 C14.48262679 55.17245774 11.6424868 55.13266285 7.9375 55.125 C6.68839844 55.12757813 5.43929688 55.13015625 4.15234375 55.1328125 C1 55 1 55 -1 54 C-1.02526648 46.47030348 -1.04283141 38.9406178 -1.05493164 31.41088867 C-1.0599737 28.84708243 -1.06680714 26.28327909 -1.07543945 23.71948242 C-1.08751064 20.04344979 -1.09322942 16.36745502 -1.09765625 12.69140625 C-1.10281754 11.53725723 -1.10797882 10.38310822 -1.11329651 9.19398499 C-1.11337204 8.13296066 -1.11344757 7.07193634 -1.11352539 5.97875977 C-1.115746 5.03944107 -1.11796661 4.10012238 -1.12025452 3.13233948 C-1 1 -1 1 0 0 Z " fill="#000101" transform="translate(20,290)"/>
<path d="M0 0 C6.6 0 13.2 0 20 0 C20 12.87 20 25.74 20 39 C16.00790408 39.66534932 12.81276711 40.1373441 8.875 40.125 C8.04742187 40.12757813 7.21984375 40.13015625 6.3671875 40.1328125 C4 40 4 40 0 39 C0 26.13 0 13.26 0 0 Z " fill="#000101" transform="translate(165,305)"/>
<path d="M0 0 C0.66 0 1.32 0 2 0 C3.2169358 2.98887012 4.39285535 5.99234233 5.5625 9 C6.07586914 10.25876953 6.07586914 10.25876953 6.59960938 11.54296875 C10.51571372 21.748574 7.47512188 29.44116858 4.125 39.4375 C3.77308594 40.53771484 3.42117187 41.63792969 3.05859375 42.77148438 C2.71183594 43.81498047 2.36507812 44.85847656 2.0078125 45.93359375 C1.69473145 46.88290771 1.38165039 47.83222168 1.05908203 48.81030273 C0.70958496 49.53290283 0.36008789 50.25550293 0 51 C-3.50711619 52.16903873 -6.36782386 52.16839619 -10.0625 52.1875 C-11.31160156 52.20167969 -12.56070313 52.21585937 -13.84765625 52.23046875 C-17 52 -17 52 -19 50 C-16.4563654 43.20010976 -13.9110325 36.40085703 -11.36450195 29.60205078 C-10.49789675 27.28774525 -9.63168451 24.97329254 -8.76586914 22.65869141 C-7.523325 19.33717961 -6.27938159 16.01619483 -5.03515625 12.6953125 C-4.64658951 11.65569366 -4.25802277 10.61607483 -3.85768127 9.54495239 C-3.31723427 8.10368484 -3.31723427 8.10368484 -2.76586914 6.63330078 C-2.28954796 5.36089035 -2.28954796 5.36089035 -1.80360413 4.06277466 C-1 2 -1 2 0 0 Z " fill="#010202" transform="translate(103,293)"/>
<path d="M0 0 C0.66 0 1.32 0 2 0 C7.49635356 9.19526336 11.30436564 18.02042456 8.66796875 28.78125 C7.94400579 31.44660022 7.12352319 34.06766355 6.25 36.6875 C6.03763702 37.33536469 5.82527405 37.98322937 5.60647583 38.65072632 C2.02282737 49.30468389 2.02282737 49.30468389 -0.9831543 51.34814453 C-3.73383355 52.23717898 -6.17765107 52.2268226 -9.0625 52.1875 C-10.10535156 52.18105469 -11.14820313 52.17460937 -12.22265625 52.16796875 C-15 52 -15 52 -18 51 C-17.38714163 47.58886879 -16.53339148 44.45645266 -15.32592773 41.2097168 C-14.98565048 40.28913986 -14.64537323 39.36856293 -14.29478455 38.42008972 C-13.92809158 37.4397023 -13.56139862 36.45931488 -13.18359375 35.44921875 C-12.61971703 33.92830376 -12.61971703 33.92830376 -12.04444885 32.37666321 C-10.84563381 29.14562905 -9.64163924 25.91655323 -8.4375 22.6875 C-7.62270445 20.49426781 -6.80824733 18.30090985 -5.99414062 16.10742188 C-4.00001526 10.73681699 -2.00163641 5.36780971 0 0 Z " fill="#010202" transform="translate(221,293)"/>
<path d="M0 0 C1.34644592 -0.00472824 1.34644592 -0.00472824 2.72009277 -0.009552 C4.18412537 -0.00651566 4.18412537 -0.00651566 5.67773438 -0.00341797 C6.67276978 -0.00437469 7.66780518 -0.00533142 8.69299316 -0.00631714 C10.80135155 -0.00699907 12.90971203 -0.0051439 15.01806641 -0.00097656 C18.25753465 0.0043715 21.49686423 -0.00092114 24.73632812 -0.00732422 C26.77929718 -0.00666344 28.82226615 -0.00538228 30.86523438 -0.00341797 C31.8412561 -0.0054422 32.81727783 -0.00746643 33.82287598 -0.009552 C34.72050659 -0.00639984 35.61813721 -0.00324768 36.54296875 0 C37.73424377 0.00119339 37.73424377 0.00119339 38.94958496 0.00241089 C40.77148438 0.12939453 40.77148438 0.12939453 41.77148438 1.12939453 C41.84392491 3.14903652 41.85525626 5.17106577 41.83398438 7.19189453 C41.82496094 8.29662109 41.8159375 9.40134766 41.80664062 10.53955078 C41.79503906 11.39419922 41.7834375 12.24884766 41.77148438 13.12939453 C35.23885137 13.29722705 28.70606032 13.4571893 22.1730957 13.61157227 C19.94876702 13.66507845 17.72448158 13.72041416 15.50024414 13.77758789 C12.31080455 13.85925913 9.12126938 13.93443841 5.93164062 14.00830078 C4.93060806 14.03533585 3.9295755 14.06237091 2.89820862 14.09022522 C1.97732956 14.1103215 1.0564505 14.13041779 0.10766602 14.15112305 C-0.70729843 14.17110855 -1.52226288 14.19109406 -2.36192322 14.21168518 C-4.22851562 14.12939453 -4.22851562 14.12939453 -5.22851562 13.12939453 C-5.32725379 11.13139881 -5.35823362 9.12982295 -5.35351562 7.12939453 C-5.35609375 6.03626953 -5.35867187 4.94314453 -5.36132812 3.81689453 C-5.14977655 -0.46391385 -3.87374367 0.00388062 0 0 Z " fill="#010101" transform="translate(156.228515625,289.87060546875)"/>
<path d="M0 0 C32.01 0 64.02 0 97 0 C97 17.49 97 34.98 97 53 C64.99 53 32.98 53 0 53 C0 35.51 0 18.02 0 0 Z M2 2 C2 18.5 2 35 2 52 C33.02 52 64.04 52 96 52 C96 35.5 96 19 96 2 C64.98 2 33.96 2 2 2 Z " fill="#479D53" transform="translate(95,11)"/>
<path d="M0 0 C0.87454834 0.00523682 1.74909668 0.01047363 2.65014648 0.01586914 C3.59438477 0.0190918 4.53862305 0.02231445 5.51147461 0.02563477 C6.50469727 0.03401367 7.49791992 0.04239258 8.52124023 0.05102539 C9.51833008 0.05553711 10.51541992 0.06004883 11.54272461 0.06469727 C14.01478872 0.07652532 16.48673541 0.0930069 18.95874023 0.11352539 C18.95874023 0.44352539 18.95874023 0.77352539 18.95874023 1.11352539 C12.68874023 1.11352539 6.41874023 1.11352539 -0.04125977 1.11352539 C-0.07884399 3.83203735 -0.07884399 3.83203735 -0.1171875 6.60546875 C-0.20094377 12.58064345 -0.28921526 18.55573698 -0.38059902 24.53079891 C-0.43586074 28.15494119 -0.48928577 31.77909149 -0.53857422 35.40332031 C-0.58617009 38.89819639 -0.63851087 42.39297159 -0.69420052 45.88772774 C-0.72462389 47.87586362 -0.75007958 49.86407349 -0.77549744 51.85227966 C-0.79544266 53.05344925 -0.81538788 54.25461884 -0.8359375 55.4921875 C-0.85148178 56.55586044 -0.86702606 57.61953339 -0.88304138 58.71543884 C-1.04125977 61.11352539 -1.04125977 61.11352539 -2.04125977 62.11352539 C-3.49607472 62.20914149 -4.95551462 62.2354089 -6.41346741 62.23377991 C-7.35722733 62.23515457 -8.30098724 62.23652924 -9.27334595 62.23794556 C-10.31703339 62.23435028 -11.36072083 62.230755 -12.43603516 62.22705078 C-13.52858109 62.22719681 -14.62112701 62.22734283 -15.7467804 62.22749329 C-19.37751209 62.22679361 -23.00819322 62.21899868 -26.63891602 62.21118164 C-29.1485542 62.20931765 -31.65819274 62.20789366 -34.16783142 62.20689392 C-40.1106057 62.20345887 -46.0533636 62.19556812 -51.99612945 62.18554443 C-59.42327901 62.17328792 -66.85043081 62.16790331 -74.27758789 62.16235352 C-87.5321545 62.1516135 -100.78670598 62.13472621 -114.04125977 62.11352539 C-114.04125977 61.45352539 -114.04125977 60.79352539 -114.04125977 60.11352539 C-77.41125977 60.11352539 -40.78125977 60.11352539 -3.04125977 60.11352539 C-3.08087148 40.74156333 -3.08087148 40.74156333 -3.13134766 21.36962891 C-3.13426655 18.95223026 -3.13681517 16.53483113 -3.13891602 14.11743164 C-3.14403198 12.84863159 -3.14914795 11.57983154 -3.15441895 10.27258301 C-3.15460022 8.47597229 -3.15460022 8.47597229 -3.15478516 6.64306641 C-3.15700577 5.59715836 -3.15922638 4.55125031 -3.16151428 3.47364807 C-3.01004415 0.50088579 -2.96531361 0.16491698 0 0 Z " fill="#46A254" transform="translate(202.041259765625,10.886474609375)"/>
<path d="M0 0 C0 19.8 0 39.6 0 60 C4.95 59.505 4.95 59.505 10 59 C11.32 59.66 12.64 60.32 14 61 C9.05 61 4.1 61 -1 61 C-1.33 41.53 -1.66 22.06 -2 2 C-38.3 2 -74.6 2 -112 2 C-112 1.34 -112 0.68 -112 0 C-97.98769442 -0.15396937 -83.97533646 -0.30193173 -69.96289444 -0.4429636 C-63.45667543 -0.508623 -56.95048836 -0.57621543 -50.44433594 -0.64819336 C-44.16798641 -0.71755838 -37.89160378 -0.78188777 -31.61516571 -0.84269524 C-29.21811797 -0.86680929 -26.82108792 -0.89275156 -24.4240799 -0.92053413 C-21.07213608 -0.95907558 -17.72018884 -0.99117287 -14.36816406 -1.02172852 C-13.37266541 -1.03467453 -12.37716675 -1.04762054 -11.35150146 -1.06095886 C-10.43727417 -1.06799835 -9.52304688 -1.07503784 -8.58111572 -1.08229065 C-7.78837376 -1.09058679 -6.99563179 -1.09888292 -6.17886734 -1.10743046 C-4 -1 -4 -1 0 0 Z " fill="#2DC236" transform="translate(200,209)"/>
<path d="M0 0 C1.32708733 0.00539291 1.32708733 0.00539291 2.6809845 0.01089478 C4.07108734 0.01067574 4.07108734 0.01067574 5.48927307 0.01045227 C8.56809285 0.01115178 11.64685295 0.01894595 14.72566223 0.02676392 C16.85415616 0.02862796 18.98265051 0.03005193 21.11114502 0.03105164 C26.72537919 0.03487789 32.33958766 0.04470909 37.95381165 0.05575562 C43.67788851 0.06596743 49.40196951 0.07054876 55.12605286 0.07559204 C66.36629855 0.08633126 77.60652513 0.10340896 88.84675598 0.12442017 C88.84675598 0.78442017 88.84675598 1.44442017 88.84675598 2.12442017 C57.82675598 2.12442017 26.80675598 2.12442017 -5.15324402 2.12442017 C-5.02949402 10.16817017 -4.90574402 18.21192017 -4.77824402 26.49942017 C-4.744245 29.03935669 -4.71024597 31.57929321 -4.67521667 34.19619751 C-4.64002376 36.20093136 -4.60410397 38.20565263 -4.56730652 40.21035767 C-4.55594666 41.25812378 -4.54458679 42.30588989 -4.53288269 43.38540649 C-4.51282166 44.37999878 -4.49276062 45.37459106 -4.47209167 46.39932251 C-4.45876801 47.26536102 -4.44544434 48.13139954 -4.43171692 49.02368164 C-4.34103689 51.34199659 -4.34103689 51.34199659 -2.15324402 53.12442017 C-3.80324402 53.12442017 -5.45324402 53.12442017 -7.15324402 53.12442017 C-7.17851094 45.73713915 -7.19607562 38.34986919 -7.20817566 30.96255493 C-7.21321765 28.44725122 -7.22005104 25.93195045 -7.22868347 23.41665649 C-7.24075496 19.81012242 -7.24647351 16.20362694 -7.25090027 12.59707642 C-7.25606155 11.46480118 -7.26122284 10.33252594 -7.26654053 9.16593933 C-7.26661606 8.12493576 -7.26669159 7.08393219 -7.26676941 6.01138306 C-7.26899002 5.08982925 -7.27121063 4.16827545 -7.27349854 3.21879578 C-7.01603794 -1.2651871 -3.7312908 0.00640583 0 0 Z " fill="#48A051" transform="translate(102.15324401855469,216.87557983398438)"/>
<path d="M0 0 C0.66 0 1.32 0 2 0 C2 25.08 2 50.16 2 76 C-20.44 76 -42.88 76 -66 76 C-66 75.01 -66 74.02 -66 73 C-33.33 73.495 -33.33 73.495 0 74 C0 49.58 0 25.16 0 0 Z " fill="#46A255" transform="translate(271,61)"/>
<path d="M0 0 C22.44 0 44.88 0 68 0 C68.04010881 18.76646623 68.04010881 18.76646623 68.04882812 26.77148438 C68.05480376 32.23169935 68.06186994 37.69189754 68.07543945 43.15209961 C68.08631197 47.55466203 68.09228611 51.95720645 68.09487724 56.35978127 C68.09672361 58.03867692 68.10032909 59.7175716 68.10573006 61.39645958 C68.11299839 63.74959816 68.11398849 66.10266253 68.11352539 68.45581055 C68.11712067 69.1484903 68.12071594 69.84117004 68.12442017 70.55484009 C68.11674416 74.16399457 67.85296102 77.48974444 67 81 C66.67 81 66.34 81 66 81 C66 54.6 66 28.2 66 1 C44.55 1 23.1 1 1 1 C1.33 2.98 1.66 4.96 2 7 C1.0625 10.375 1.0625 10.375 0 13 C-0.66 13 -1.32 13 -2 13 C-1.34 8.71 -0.68 4.42 0 0 Z " fill="#469D53" transform="translate(205,144)"/>
<path d="M0 0 C-2 2 -2 2 -4.8125 2.4375 C-8.20588965 3.03633347 -10.21375051 4.00982179 -13 6 C-13.33 6.66 -13.66 7.32 -14 8 C-14.78375 8.309375 -15.5675 8.61875 -16.375 8.9375 C-19.07230539 10.02926647 -20.21845792 10.74826185 -22 13 C-22.41121443 15.12173585 -22.41121443 15.12173585 -22.29296875 17.44921875 C-22.28330078 18.29677734 -22.27363281 19.14433594 -22.26367188 20.01757812 C-22.23853516 20.89865234 -22.21339844 21.77972656 -22.1875 22.6875 C-22.17396484 23.58017578 -22.16042969 24.47285156 -22.14648438 25.39257812 C-22.11114079 27.59566166 -22.06180493 29.79752582 -22 32 C-22.66 32 -23.32 32 -24 32 C-26.58096918 26.83806164 -25.86035522 18.6507105 -25 13 C-23.36267849 9.50667363 -21.24602103 7.99002294 -18 6 C-16.55173828 5.01386719 -16.55173828 5.01386719 -15.07421875 4.0078125 C-6.25675911 -1.63624012 -6.25675911 -1.63624012 0 0 Z " fill="#479F55" transform="translate(128,92)"/>
<path d="M0 0 C0.66 0 1.32 0 2 0 C1.62681641 0.98226562 1.62681641 0.98226562 1.24609375 1.984375 C0.30664273 5.19756978 -0.15772164 7.63931588 0 11 C2.48169611 15.51264574 5.5420862 19.20424405 9 23 C14.7809725 22.36934845 20.3443706 21.34844868 26 20 C26 20.66 26 21.32 26 22 C24.1291122 22.67812114 22.25305707 23.3419946 20.375 24 C18.80878906 24.556875 18.80878906 24.556875 17.2109375 25.125 C11.52106198 26.67552569 11.52106198 26.67552569 8 26 C5.59924325 23.9159454 3.87115844 21.47479437 2.0625 18.875 C1.55654297 18.20984375 1.05058594 17.5446875 0.52929688 16.859375 C-1.8516794 13.54614744 -3.03031088 11.8567875 -2.8828125 7.6875 C-2.02288522 5.06966827 -1.11239566 2.52143016 0 0 Z " fill="#499D55" transform="translate(163,147)"/>
<path d="M0 0 C2.23828125 2.28515625 2.23828125 2.28515625 4.3125 5.0625 C5.00988281 5.98160156 5.70726562 6.90070313 6.42578125 7.84765625 C7.20501953 8.91306641 7.20501953 8.91306641 8 10 C7.67 10.66 7.34 11.32 7 12 C5.68 11.01 4.36 10.02 3 9 C3.33 8.34 3.66 7.68 4 7 C3.071875 6.62875 3.071875 6.62875 2.125 6.25 C-0.35068687 4.79371361 -0.95125002 3.62187494 -2 1 C-3.299375 1.433125 -3.299375 1.433125 -4.625 1.875 C-5.73875 2.24625 -6.8525 2.6175 -8 3 C-9.010625 3.37125 -10.02125 3.7425 -11.0625 4.125 C-13.89405977 4.96844334 -16.06961603 5.17237553 -19 5 C-20.20628008 7.33214148 -21.1654738 9.49642139 -22 12 C-22.66 11.67 -23.32 11.34 -24 11 C-22.07964643 4.68814019 -22.07964643 4.68814019 -19.33300781 2.9375 C-17.28243952 2.14889888 -15.25226329 1.54810568 -13.125 1 C-12.06345703 0.67708984 -12.06345703 0.67708984 -10.98046875 0.34765625 C-7.04244418 -0.77435075 -3.84503247 -1.60043666 0 0 Z " fill="#469F53" transform="translate(188,132)"/>
<path d="M0 0 C0.87454834 0.00523682 1.74909668 0.01047363 2.65014648 0.01586914 C3.59438477 0.0190918 4.53862305 0.02231445 5.51147461 0.02563477 C6.50469727 0.03401367 7.49791992 0.04239258 8.52124023 0.05102539 C9.51833008 0.05553711 10.51541992 0.06004883 11.54272461 0.06469727 C14.01478872 0.07652532 16.48673541 0.0930069 18.95874023 0.11352539 C18.95874023 0.44352539 18.95874023 0.77352539 18.95874023 1.11352539 C18.10324585 1.15110962 18.10324585 1.15110962 17.23046875 1.18945312 C14.66047867 1.30509088 12.09088496 1.42796163 9.52124023 1.55102539 C8.6234082 1.5903418 7.72557617 1.6296582 6.80053711 1.67016602 C5.9465332 1.71206055 5.0925293 1.75395508 4.21264648 1.79711914 C3.02650757 1.85210571 3.02650757 1.85210571 1.81640625 1.90820312 C-0.05527417 1.91915796 -0.05527417 1.91915796 -1.04125977 3.11352539 C-1.16433287 4.83126707 -1.21912535 6.55395278 -1.24658203 8.27587891 C-1.26652725 9.37694473 -1.28647247 10.47801056 -1.30702209 11.61244202 C-1.32373459 12.81033859 -1.34044708 14.00823517 -1.35766602 15.24243164 C-1.37844711 16.46179916 -1.39922821 17.68116669 -1.42063904 18.93748474 C-1.48626404 22.85027184 -1.54507949 26.76312856 -1.60375977 30.67602539 C-1.64693268 33.32121501 -1.69054655 35.96639748 -1.73461914 38.61157227 C-1.84195857 45.11214875 -1.94370044 51.61279518 -2.04125977 58.11352539 C-2.37125977 58.11352539 -2.70125977 58.11352539 -3.04125977 58.11352539 C-3.0643886 50.69892597 -3.08217761 43.28433428 -3.09307194 35.86970615 C-3.09829959 32.42712191 -3.10539507 28.98456227 -3.11669922 25.54199219 C-3.12960211 21.58797496 -3.13448894 17.63396784 -3.13891602 13.67993164 C-3.1440773 12.43828751 -3.14923859 11.19664337 -3.15455627 9.91737366 C-3.15463181 8.77626633 -3.15470734 7.635159 -3.15478516 6.45947266 C-3.15700577 5.44909439 -3.15922638 4.43871613 -3.16151428 3.39772034 C-3.00757424 0.47368001 -2.92019571 0.16240773 0 0 Z " fill="#4B8F57" transform="translate(202.041259765625,10.886474609375)"/>
<path d="M0 0 C1.43088528 2.86177057 0.59991697 4.93375773 0 8 C-0.66 8 -1.32 8 -2 8 C-2 11.3 -2 14.6 -2 18 C-1.34 18 -0.68 18 0 18 C0.66 20.64 1.32 23.28 2 26 C2.66 26 3.32 26 4 26 C4.33 26.99 4.66 27.98 5 29 C6.49985609 30.66710346 6.49985609 30.66710346 8 32 C5.03443913 31.46080711 2.75127417 30.94715093 0.81640625 28.5078125 C-2.79791504 21.72920214 -6.30411371 12.57797398 -4 5 C-1.9375 2.1875 -1.9375 2.1875 0 0 Z " fill="#489D56" transform="translate(95,138)"/>
<path d="M0 0 C0.33 0.66 0.66 1.32 1 2 C1.99 2 2.98 2 4 2 C4 2.66 4 3.32 4 4 C5.98 4 7.96 4 10 4 C10.33 2.68 10.66 1.36 11 0 C12.32 0.66 13.64 1.32 15 2 C13.68 3.65 12.36 5.3 11 7 C4.45150687 5.83795007 -1.74538144 4.26616615 -8 2 C-5.33333333 1.33333333 -2.66666667 0.66666667 0 0 Z " fill="#44A152" transform="translate(114,123)"/>
<path d="M0 0 C2.475 0.495 2.475 0.495 5 1 C5.27263672 2.16015625 5.27263672 2.16015625 5.55078125 3.34375 C7.01685262 9.4185483 8.65973387 15.2050553 11 21 C10.01 21.99 9.02 22.98 8 24 C7.87625 22.88625 7.7525 21.7725 7.625 20.625 C7.3534187 16.96896323 7.3534187 16.96896323 5 15 C4.63837971 13.67405895 4.30271961 12.34061543 4 11 C3.67 10.67 3.34 10.34 3 10 C3.06446804 7.96925687 3.13267836 5.93806533 3.2578125 3.91015625 C3.13019531 2.96462891 3.13019531 2.96462891 3 2 C2.01 1.34 1.02 0.68 0 0 Z " fill="#41A052" transform="translate(117,136)"/>
<path d="M0 0 C0.99 0.66 1.98 1.32 3 2 C2.44221358 6.14993097 1.11074604 8.73141775 -1.3125 12.125 C-1.90675781 12.97320312 -2.50101563 13.82140625 -3.11328125 14.6953125 C-4.95287944 16.94244072 -6.51692899 18.50434904 -9 20 C-12.75 20.1875 -12.75 20.1875 -16 20 C-16 19.67 -16 19.34 -16 19 C-12.04 18.505 -12.04 18.505 -8 18 C-8 17.01 -8 16.02 -8 15 C-7.34 15 -6.68 15 -6 15 C-6 14.34 -6 13.68 -6 13 C-5.34 13 -4.68 13 -4 13 C-3.566875 12.1028125 -3.566875 12.1028125 -3.125 11.1875 C-2 9 -2 9 0 6 C0.16699232 2.87478167 0.16699232 2.87478167 0 0 Z " fill="#4B9B56" transform="translate(163,174)"/>
<path d="M0 0 C0.99 0.495 0.99 0.495 2 1 C2.4140625 3.50390625 2.4140625 3.50390625 2.625 6.5625 C2.69976563 7.57441406 2.77453125 8.58632812 2.8515625 9.62890625 C2.92503906 10.80259766 2.92503906 10.80259766 3 12 C3.66 11.67 4.32 11.34 5 11 C4.90234375 13.97851562 4.90234375 13.97851562 4.8046875 16.95703125 C4.86745538 19.31359719 4.86745538 19.31359719 7 22 C6.625 24.1875 6.625 24.1875 6 26 C5.18395001 24.0848421 4.37229368 22.16781166 3.5625 20.25 C3.11003906 19.18265625 2.65757813 18.1153125 2.19140625 17.015625 C0.48703898 12.70161998 -0.12357127 9.39141633 -0.0625 4.75 C-0.05347656 3.85796875 -0.04445313 2.9659375 -0.03515625 2.046875 C-0.02355469 1.37140625 -0.01195312 0.6959375 0 0 Z " fill="#429F4F" transform="translate(15,214)"/>
<path d="M0 0 C0.66 0.33 1.32 0.66 2 1 C2 7.6 2 14.2 2 21 C-7 24 -7 24 -10 24 C-9.505 22.515 -9.505 22.515 -9 21 C-7.88625 20.87625 -6.7725 20.7525 -5.625 20.625 C-1.96896323 20.3534187 -1.96896323 20.3534187 0 18 C0.27654388 16.06318864 0.27654388 16.06318864 0.1953125 13.8671875 C0.18886719 13.06152344 0.18242187 12.25585938 0.17578125 11.42578125 C0.15902344 10.58402344 0.14226562 9.74226563 0.125 8.875 C0.11146484 7.60076172 0.11146484 7.60076172 0.09765625 6.30078125 C0.07405647 4.20040116 0.03818483 2.10016556 0 0 Z " fill="#489E56" transform="translate(182,103)"/>
<path d="M0 0 C0.66 0 1.32 0 2 0 C2.268125 0.598125 2.53625 1.19625 2.8125 1.8125 C5.08447895 5.99772437 7.53775641 7.43218469 12 9 C11.34 10.98 10.68 12.96 10 15 C5.81340142 11.17225273 2.62179138 7.05392126 0 2 C0 1.34 0 0.68 0 0 Z " fill="#46A153" transform="translate(121,177)"/>
<path d="M0 0 C2.46800047 1.15173355 4.04783565 2.04783565 6 4 C6.03188702 6.0088822 6.05895058 8.02006256 5.97265625 10.02734375 C5.90332679 12.21506135 5.90332679 12.21506135 7 15 C6.01 16.485 6.01 16.485 5 18 C4.16320723 15.37605694 3.33043058 12.75095616 2.5 10.125 C2.26152344 9.37863281 2.02304688 8.63226563 1.77734375 7.86328125 C0 2.2265625 0 2.2265625 0 0 Z " fill="#42A250" transform="translate(200,116)"/>
<path d="M0 0 C0.33 0 0.66 0 1 0 C1.06058594 1.12019531 1.12117187 2.24039063 1.18359375 3.39453125 C1.26801424 4.86719984 1.35266149 6.33985544 1.4375 7.8125 C1.47681641 8.55048828 1.51613281 9.28847656 1.55664062 10.04882812 C1.74916968 15.74768335 1.74916968 15.74768335 4.375 20.625 C6.0657671 22.22825052 6.0657671 22.22825052 9 23 C9.33 23.99 9.66 24.98 10 26 C8.31727014 25.37498605 6.65369357 24.69822617 5 24 C4.1234375 23.7009375 3.246875 23.401875 2.34375 23.09375 C0 21 0 21 -0.40161133 18.78833008 C-0.49363451 15.94805407 -0.43430933 13.15159434 -0.3125 10.3125 C-0.28994141 9.32443359 -0.26738281 8.33636719 -0.24414062 7.31835938 C-0.18517988 4.87738441 -0.10295048 2.43945132 0 0 Z " fill="#459352" transform="translate(147,98)"/>
<path d="M0 0 C1.90072266 0.24556641 1.90072266 0.24556641 3.83984375 0.49609375 C9.09310173 1.07978908 14.28250085 1.11285949 19.5625 1.0625 C20.93245117 1.05573242 20.93245117 1.05573242 22.33007812 1.04882812 C24.55345738 1.0371874 26.77669121 1.02083851 29 1 C28.67 1.66 28.34 2.32 28 3 C23.89596637 3.08694042 19.79216871 3.14037149 15.6875 3.1875 C13.93663086 3.22520508 13.93663086 3.22520508 12.15039062 3.26367188 C11.03212891 3.27333984 9.91386719 3.28300781 8.76171875 3.29296875 C7.73006592 3.3086792 6.69841309 3.32438965 5.63549805 3.34057617 C3 3 3 3 1.13989258 1.48168945 C0.57564575 0.74825317 0.57564575 0.74825317 0 0 Z " fill="#4C9D58" transform="translate(127,200)"/>
<path d="M0 0 C0.99 0.33 1.98 0.66 3 1 C3 8.26 3 15.52 3 23 C1.35 23.66 -0.3 24.32 -2 25 C-2 24.34 -2 23.68 -2 23 C-0.68 22.67 0.64 22.34 2 22 C1.67 16.39 1.34 10.78 1 5 C0.34 4.67 -0.32 4.34 -1 4 C-0.67 2.68 -0.34 1.36 0 0 Z " fill="#4BA157" transform="translate(137,96)"/>
<path d="M0 0 C9.61538462 9.23076923 9.61538462 9.23076923 12 14 C9.625 13.8125 9.625 13.8125 7 13 C6.31867549 11.33927151 5.65257873 9.672233 5 8 C2.47627099 6.63921965 2.47627099 6.63921965 0 6 C0 4.02 0 2.04 0 0 Z " fill="#479D54" transform="translate(92,174)"/>
<path d="M0 0 C0.33 0 0.66 0 1 0 C0.70590493 7.73470033 -0.72676526 13.98157575 -4 21 C-4.33 21 -4.66 21 -5 21 C-5.4238015 16.33818346 -3.90963085 13.20118786 -2 9 C-1.62691369 7.67723944 -1.26953585 6.34767923 -1 5 C-1.99 4.67 -2.98 4.34 -4 4 C-3.67 3.34 -3.34 2.68 -3 2 C-1 3 -1 3 0 4 C0 2.68 0 1.36 0 0 Z " fill="#479F54" transform="translate(196,144)"/>
<path d="M0 0 C1 3 1 3 -0.328125 5.84765625 C-0.96234375 6.90855469 -1.5965625 7.96945313 -2.25 9.0625 C-2.87390625 10.12597656 -3.4978125 11.18945312 -4.140625 12.28515625 C-6 15 -6 15 -9 17 C-9 15.68 -9 14.36 -9 13 C-8.34 13 -7.68 13 -7 13 C-7 11.68 -7 10.36 -7 9 C-5.68 8.67 -4.36 8.34 -3 8 C-3 6.68 -3 5.36 -3 4 C-2.34 4 -1.68 4 -1 4 C-0.67 2.68 -0.34 1.36 0 0 Z " fill="#469D51" transform="translate(268,232)"/>
<path d="M0 0 C6.04801071 0.54981916 11.30601106 1.90429574 17 4 C13.55400904 4.9741831 11.50086867 4.83354016 8 4 C3.55240759 2.98076007 1.11562101 2.94218949 -3 5 C-2.01 3.35 -1.02 1.7 0 0 Z " fill="#489B57" transform="translate(100,131)"/>
<path d="M0 0 C0 0.99 0 1.98 0 3 C-2.1875 4.5625 -2.1875 4.5625 -5 6 C-6.1446875 6.5878125 -6.1446875 6.5878125 -7.3125 7.1875 C-10.98614442 8.29813669 -14.16830683 8.1298879 -18 8 C-14.69815757 6.28527506 -11.31468576 4.85309549 -7.875 3.4375 C-3.89405658 1.8140301 -3.89405658 1.8140301 0 0 Z " fill="#47A052" transform="translate(175,193)"/>
<path d="M0 0 C0.66 0.33 1.32 0.66 2 1 C0.30726733 4.03364247 -1.40191513 6.67122881 -4 9 C-8.67215531 9.77074671 -12.1287131 8.58085793 -16 6 C-15.11248047 6.05220703 -15.11248047 6.05220703 -14.20703125 6.10546875 C-9.27876563 6.27430004 -5.98345584 6.25919114 -2 3 C-1.34 2.01 -0.68 1.02 0 0 Z " fill="#489B53" transform="translate(120,164)"/>
<path d="M0 0 C0.66 0 1.32 0 2 0 C2.433125 0.61875 2.86625 1.2375 3.3125 1.875 C4.85266004 4.20727054 4.85266004 4.20727054 7.5625 4.875 C10 6 10 6 11.3125 9.125 C11.6528125 10.548125 11.6528125 10.548125 12 12 C8.60140297 10.53033642 6.35036291 8.61962486 3.75 6 C3.04359375 5.29875 2.3371875 4.5975 1.609375 3.875 C0 2 0 2 0 0 Z " fill="#449D51" transform="translate(26,246)"/>
<path d="M0 0 C0.66 0.33 1.32 0.66 2 1 C1.071875 2.36125 1.071875 2.36125 0.125 3.75 C-1.44389611 6.14948817 -2.80443821 8.40961612 -4 11 C-5.65 10.67 -7.3 10.34 -9 10 C-8.06409496 8.8944811 -7.12620142 7.79064547 -6.1875 6.6875 C-5.66542969 6.07261719 -5.14335937 5.45773438 -4.60546875 4.82421875 C-3.12827531 3.14575321 -1.59960869 1.56117966 0 0 Z " fill="#47A053" transform="translate(192,178)"/>
<path d="M0 0 C-3 2 -3 2 -7 2 C-7.33 2.99 -7.66 3.98 -8 5 C-9.84765625 5.73046875 -9.84765625 5.73046875 -12.0625 6.1875 C-12.79597656 6.34605469 -13.52945313 6.50460938 -14.28515625 6.66796875 C-15.13400391 6.83232422 -15.13400391 6.83232422 -16 7 C-12.26910751 2.45804392 -5.88161013 -1.96053671 0 0 Z " fill="#489D54" transform="translate(56,15)"/>
<path d="M0 0 C3.90096055 0.56816832 6.53869634 1.69246423 9.8125 3.875 C10.60269531 4.38804688 11.39289063 4.90109375 12.20703125 5.4296875 C12.79871094 5.94789062 13.39039063 6.46609375 14 7 C14 7.99 14 8.98 14 10 C13.278125 9.401875 12.55625 8.80375 11.8125 8.1875 C8.07400179 5.27977917 4.71382168 2.87292994 0 2 C0 1.34 0 0.68 0 0 Z " fill="#409B57" transform="translate(163,91)"/>
<path d="M0 0 C0.66 0 1.32 0 2 0 C2 0.66 2 1.32 2 2 C2.66 2 3.32 2 4 2 C4.99 3.485 4.99 3.485 6 5 C6.66 5.33 7.32 5.66 8 6 C8 8.31 8 10.62 8 13 C6.99152789 11.67306301 5.99450461 10.33743723 5 9 C4.566875 8.42121094 4.13375 7.84242187 3.6875 7.24609375 C3.23375 6.62863281 2.78 6.01117188 2.3125 5.375 C1.87550781 4.78460938 1.43851563 4.19421875 0.98828125 3.5859375 C0 2 0 2 0 0 Z " fill="#409F50" transform="translate(192,102)"/>
<path d="M0 0 C2.125 0.375 2.125 0.375 4 1 C4.59732819 3.76264289 5 6.16032769 5 9 C2.69 6.69 0.38 4.38 -2 2 C-1.34 1.34 -0.68 0.68 0 0 Z " fill="#3FA24D" transform="translate(184,91)"/>
<path d="M0 0 C1.43088528 2.86177057 0.59991697 4.93375773 0 8 C-0.66 8 -1.32 8 -2 8 C-2.33 9.32 -2.66 10.64 -3 12 C-4.3125 9.9375 -4.3125 9.9375 -5 7 C-3.65102562 4.39879043 -1.90447566 2.2176277 0 0 Z " fill="#3FA450" transform="translate(95,138)"/>
<path d="M0 0 C2.90802461 2.21928194 4.95312762 3.92969143 7 7 C6.67 7.99 6.34 8.98 6 10 C2.46413986 6.82679218 0.41421969 4.83256305 0 0 Z " fill="#41A750" transform="translate(257,30)"/>
<path d="M0 0 C-1.1196986 1.00593243 -2.2459412 2.0045849 -3.375 3 C-4.00148437 3.556875 -4.62796875 4.11375 -5.2734375 4.6875 C-7 6 -7 6 -9 6 C-5.14285714 -1.71428571 -5.14285714 -1.71428571 0 0 Z " fill="#439A4B" transform="translate(257,253)"/>
<path d="M0 0 C-2.58876495 2.58876495 -4.4374907 2.42999851 -8 3 C-10.28480253 3.97348627 -10.28480253 3.97348627 -12 5 C-11.0518738 2.62968451 -10.31103322 1.23327492 -8.25 -0.3125 C-5.24827907 -1.22969251 -3.02230874 -0.68688835 0 0 Z " fill="#42964F" transform="translate(128,92)"/>
<path d="M0 0 C2.97 0.495 2.97 0.495 6 1 C4.37660195 2.70884005 2.70680947 4.37446717 1 6 C0.34 6 -0.32 6 -1 6 C-0.67 4.02 -0.34 2.04 0 0 Z " fill="#3AA24E" transform="translate(98,93)"/>
<path d="M0 0 C0.66 0 1.32 0 2 0 C0.41037341 4.03520597 -1.28232318 8.01811282 -3 12 C-3.88336837 9.5332355 -4.1312406 8.36140628 -3.22265625 5.859375 C-2.83980469 5.16328125 -2.45695312 4.4671875 -2.0625 3.75 C-1.68222656 3.04359375 -1.30195312 2.3371875 -0.91015625 1.609375 C-0.60980469 1.07828125 -0.30945313 0.5471875 0 0 Z " fill="#4B9756" transform="translate(90,107)"/>
<path d="M0 0 C0 2 0 4 0 6 C-1.98 6.99 -1.98 6.99 -4 8 C-4.66 7.34 -5.32 6.68 -6 6 C-4.02 4.02 -2.04 2.04 0 0 Z " fill="#499A54" transform="translate(34,25)"/>
<path d="M0 0 C0 0.33 0 0.66 0 1 C-2.64 1.33 -5.28 1.66 -8 2 C-8 2.66 -8 3.32 -8 4 C-8.99 4.33 -9.98 4.66 -11 5 C-10.6875 3.0625 -10.6875 3.0625 -10 1 C-6.52674819 -0.1577506 -3.63932552 -0.06866652 0 0 Z " fill="#41A550" transform="translate(141,163)"/>
<path d="M0 0 C0.66 0.33 1.32 0.66 2 1 C2.21278058 5.46839215 1.59138085 8.82262526 0 13 C-0.66 13 -1.32 13 -2 13 C-1.34 8.71 -0.68 4.42 0 0 Z " fill="#489C55" transform="translate(205,144)"/>
</svg>
